<?xml version="1.0" encoding="utf-8"?>
<!-- Generator: Adobe Illustrator 19.1.0, SVG Export Plug-In . SVG Version: 6.00 Build 0)  -->
<svg version="1.0" id="Слой_1" xmlns="http://www.w3.org/2000/svg" xmlns:xlink="http://www.w3.org/1999/xlink" x="0px" y="0px"
	 viewBox="0 0 125.7 117.1" style="enable-background:new 0 0 125.7 117.1;" xml:space="preserve">
<style type="text/css">
	.st0{fill:#4D4D4D;}
</style>
<g>
	<path class="st0" d="M111,11.2c-17.4,6.4-33.7,15.3-50.6,23.1c-18,8.3-35.5,17.4-53.3,26c-1.1,0.5-0.9,2.6,0.4,2.7
		c11.7,1.6,23.1,4.2,34.6,6.8c0.2,11.7-0.1,23.4,0.1,35.1c0,1.6,2,1.9,2.8,0.8C51,97,57.1,88.2,63.7,79.8c9.1,5.5,18.2,10.9,26.8,17
		c0.8,0.5,2,0,2.2-0.9c2.7-14,5.5-27.7,9.4-41.4c4-13.8,7.7-27.6,10.8-41.6C113,12,112.1,10.7,111,11.2z M52.3,70.3
		c-0.4,0.3-0.7,0.7-0.7,1.2c-0.6,1.1-1,2.3-1.5,4.1c-1.8,7.1-3,14.4-5,21.4c0-9.4,0.2-18.8,0-28.2c17.8-15.7,36.2-30.9,54.8-45.7
		C88.7,34,77.6,45,66.5,55.9c-3.4,3.4-6.9,6.7-10.3,10.1C54.4,67.7,53.2,68.9,52.3,70.3z M103.5,17.3c-20.4,16-40.5,32.6-60,49.7
		c-10.2-2.4-20.4-4.7-30.8-6.3C28.7,53,44.3,45,60.3,37.6C74.8,30.9,88.9,23.4,103.5,17.3z M47.4,96.9c1.7-6.3,2.9-12.7,4.4-19
		c0.4-1.6,0.7-3.1,1.3-4.5c2.6,1.6,5.3,3.3,8,4.9C56.4,84.4,51.9,90.6,47.4,96.9z M99.2,53.8c-3.7,13-6.5,26-9,39.2
		c-11.5-8-23.7-14.9-35.5-22.2c0.1-0.1,0.2-0.2,0.3-0.3c1.4-1.6,3.1-3.1,4.7-4.6c3.5-3.4,6.9-6.8,10.4-10.2
		C82.9,43,95.8,30.2,108.7,17.5C105.9,29.7,102.6,41.8,99.2,53.8z"/>
	<path class="st0" d="M33.3,60c3.6-2,7.2-4,10.8-6c1.3-0.7,0.1-2.6-1.1-1.9c-3.6,2-7.2,4-10.8,6C30.9,58.7,32,60.7,33.3,60z"/>
	<path class="st0" d="M43.5,56.9c-1.7,0.9-3.4,1.8-5.1,2.6c-1.3,0.7-0.1,2.6,1.1,1.9c1.7-0.9,3.4-1.8,5.1-2.6
		C45.9,58.1,44.8,56.2,43.5,56.9z"/>
</g>
</svg>
