<?xml version="1.0" encoding="utf-8"?>
<!-- Generator: Adobe Illustrator 19.1.0, SVG Export Plug-In . SVG Version: 6.00 Build 0)  -->
<svg version="1.0" id="Слой_1" xmlns="http://www.w3.org/2000/svg" xmlns:xlink="http://www.w3.org/1999/xlink" x="0px" y="0px"
	 viewBox="0 0 50 50" style="enable-background:new 0 0 50 50;" xml:space="preserve">
<style type="text/css">
	.st0{fill:#4D4D4D;}
</style>
<g>
	<path class="st0" d="M24.4,17.8c-3.8,0.4-6.5,3.6-6.4,7.3c0.1,3.7,3.7,6.9,7.4,6.9c0.1,0,0.1,0,0.2,0c3.8-0.4,6.5-2.9,6.2-6.9
		C31.5,21.3,28.7,17.4,24.4,17.8z M29.6,28.4c-1.3-3.1-2.7-6.2-4.3-9.1c0.4,0,0.8,0.1,1.1,0.2c1.4,2.4,2.3,5,3.8,7.3
		c0,0,0,0.1,0.1,0.1C30.1,27.4,29.9,27.9,29.6,28.4z M30.3,24.2c0.1,0.3,0.1,0.6,0.1,0.9c-0.8-1.5-1.5-3.1-2.3-4.7
		C29.2,21.3,30,22.7,30.3,24.2z M24.1,19.3C24.1,19.3,24.1,19.3,24.1,19.3c1.7,3.2,3.3,6.5,4.7,9.9c0,0,0,0,0,0.1
		c-0.3,0.2-0.5,0.4-0.9,0.6c-1.7-3.4-3.4-6.8-5-10.3c0.3-0.1,0.6-0.2,1-0.3C23.9,19.3,24,19.3,24.1,19.3z M23.6,30.3
		c-1.3-2.5-2.5-5.1-3.8-7.6c0.1-0.3,0.3-0.7,0.5-1c1.3,3,2.8,6,4.5,8.9C24.4,30.5,24,30.4,23.6,30.3z M26,30.5
		c-1.8-3.2-3.4-6.4-4.9-9.8c0.3-0.2,0.5-0.5,0.8-0.7c1.7,3.4,3.3,6.8,5,10.2C26.7,30.4,26.4,30.5,26,30.5z M19.5,25.5
		c-0.1-0.5-0.1-0.9,0-1.4c0.9,1.8,1.7,3.5,2.6,5.3C20.7,28.5,19.7,27,19.5,25.5z"/>
	<path class="st0" d="M36.7,11C31.4,6.2,22.1,5.7,16,9C9.9,12.3,5.4,20.4,6.8,27.3c0.4,2.1,1,4.2,1.9,6.2c0.9,2,2.6,3.6,4.2,5
		c3.3,3.1,7.4,4.7,11.9,4.8c7.6-0.3,14.7-4.4,17.6-11.6C45.2,24.5,42.2,16,36.7,11z M37.2,13.6c1.9,2.3,3.5,5,4.4,7.9
		c-1.6-2.9-3.3-5.7-4.9-8.6C36.8,13.1,37,13.3,37.2,13.6z M41.5,29.9c-1.4-2.4-2.6-4.8-4-7.2c-0.5-2.4-1.7-4.6-3.4-6.3
		c-1.3-2.4-2.6-4.9-3.9-7.2c0.4,0.1,0.8,0.2,1.1,0.4c4,6.1,7,12.7,10.5,19C41.8,29,41.7,29.4,41.5,29.9z M40.7,32.1
		c-1-1.7-2-3.3-2.9-5c0-0.3,0.1-0.5,0.1-0.8c0-0.3,0-0.6,0-1c1.1,1.9,2.1,3.9,3.2,5.8C41,31.5,40.8,31.8,40.7,32.1z M39.6,34
		c-0.8-1.4-1.6-2.7-2.6-4.1c0.2-0.4,0.3-0.8,0.4-1.2c0.9,1.5,1.8,3,2.6,4.5C39.9,33.5,39.8,33.7,39.6,34z M24.5,36.2
		c-2.9-0.2-5.7-1.1-7.9-3.1c-2.3-2.1-3.1-5.7-3-8.7c0.2-6.5,6.8-11.7,13.3-10.5c5.6,1,9.8,6.4,9.5,12.1
		C36.2,32.3,30.5,36.3,24.5,36.2z M35,38.5c-0.7-1.2-1.4-2.3-2.1-3.5c0.3-0.2,0.6-0.4,0.9-0.7c0.8,1.1,1.5,2.3,2.2,3.5
		C35.7,38.1,35.4,38.3,35,38.5z M33.1,39.7c-0.7-1.2-1.4-2.3-2.1-3.5c0.4-0.2,0.7-0.4,1.1-0.6c0.7,1.1,1.4,2.3,2.1,3.5
		C33.8,39.3,33.4,39.5,33.1,39.7z M31,40.6c-0.7-1.2-1.4-2.4-2.2-3.6c0.4-0.1,0.8-0.3,1.2-0.4c0.7,1.2,1.5,2.3,2.2,3.5
		C31.8,40.3,31.4,40.5,31,40.6z M29,41.2c-0.8-1.3-1.6-2.5-2.4-3.8c0.3,0,0.7-0.1,1-0.2c0.8,1.2,1.5,2.4,2.3,3.7
		C29.7,41.1,29.4,41.1,29,41.2z M26.9,41.7c-0.9-1.3-1.8-2.7-2.6-4.1c0.1,0,0.2,0,0.2,0c0.3,0,0.6,0,1,0c0.8,1.3,1.6,2.6,2.5,3.9
		C27.6,41.6,27.2,41.6,26.9,41.7z M24.8,41.9c-0.1,0-0.2,0-0.2,0c-1-1.5-1.9-3.1-2.8-4.7c0.4,0.1,0.8,0.2,1.2,0.2
		c0.8,1.5,1.7,3,2.7,4.4C25.4,41.8,25.1,41.9,24.8,41.9z M18.4,40.4c-3.4-6.3-6.8-12.6-10.2-18.8c0.1-0.3,0.2-0.7,0.3-1
		c1.3,2.4,2.7,4.8,4,7.2c0.4,2.4,1.4,4.6,3.2,6.2c0.2,0.2,0.4,0.4,0.7,0.6c1.3,2.2,2.6,4.4,4,6.5C19.7,41,19,40.7,18.4,40.4z
		 M15.8,38.9c-2.8-4.7-5.4-9.4-7.9-14.4c0-0.1,0-0.3,0-0.4c0-0.3,0-0.6,0.1-0.8c2.9,5.4,5.9,10.9,8.8,16.3
		C16.4,39.4,16.1,39.1,15.8,38.9z M9.4,18.3c0.3,0.6,0.7,1.2,1.1,1.8c0.6,1.1,1.2,2.2,1.8,3.4c0,0.3-0.1,0.6-0.1,0.8
		c0,0.3,0,0.5,0,0.8c-1.1-2-2.2-3.9-3.2-5.9C9.1,18.9,9.3,18.6,9.4,18.3z M10.8,15.8c0.9,1.5,1.6,3,2.3,4.5c-0.2,0.5-0.4,1-0.5,1.5
		c-0.3-0.6-0.6-1.2-1-1.8c-0.5-0.9-1.3-1.9-1.6-2.9C10.2,16.7,10.5,16.2,10.8,15.8z M12.2,14c0.8,1.2,1.6,2.5,2.3,3.9
		c-0.3,0.4-0.6,0.8-0.8,1.3c-0.7-1.4-1.4-2.9-2.2-4.2C11.7,14.6,11.9,14.3,12.2,14z M13.8,12.4c0.7,1.3,1.4,2.5,2.1,3.8
		c-0.2,0.2-0.5,0.5-0.7,0.7c-0.7-1.3-1.4-2.5-2.3-3.8C13.2,12.9,13.5,12.7,13.8,12.4z M15.5,11c0.7,1.3,1.4,2.5,2,3.7
		c-0.3,0.2-0.6,0.4-0.9,0.7c-0.7-1.3-1.4-2.5-2.1-3.7C14.9,11.5,15.2,11.3,15.5,11z M19.3,9.1c0.6,1.3,1.3,2.5,2,3.7
		c-0.3,0.1-0.7,0.2-1,0.4c-0.7-1.2-1.3-2.5-2-3.7C18.6,9.4,18.9,9.2,19.3,9.1z M21.5,8.5c0.8,1.2,1.4,2.6,2.1,3.8
		c-0.4,0.1-0.9,0.1-1.3,0.2c-0.8-1.2-1.4-2.5-2.1-3.8C20.7,8.7,21.1,8.6,21.5,8.5z M23.8,8.3c0.7,1.4,1.5,2.8,2.3,4.1
		c-0.4,0-0.9-0.1-1.3,0C24,11,23.4,9.6,22.6,8.4C23,8.3,23.4,8.3,23.8,8.3z M17.4,10c0.7,1.2,1.3,2.4,2,3.7
		c-0.3,0.2-0.6,0.3-0.9,0.5c-0.7-1.2-1.4-2.5-2-3.7C16.7,10.3,17,10.1,17.4,10C17.4,10,17.4,10,17.4,10z M21.7,41.4
		c-1.1-1.8-2.3-3.7-3.4-5.5c0.6,0.3,1.3,0.6,2,0.8c0.9,1.7,1.9,3.4,2.9,5C22.7,41.7,22.3,41.6,21.7,41.4
		C21.8,41.5,21.7,41.5,21.7,41.4z M28.8,8.8c1.1,1.9,2.2,3.8,3.2,5.7c-0.5-0.4-1-0.7-1.6-0.9c-1-1.7-2-3.4-3-5.1
		C27.8,8.6,28.3,8.7,28.8,8.8z M33.1,10.3c0.4,0.2,0.8,0.5,1.2,0.7c0,0,0,0.1,0.1,0.1c2.5,4.4,5,8.7,7.5,13.1
		c0.1,0.1,0.1,0.2,0.2,0.2c0,0.4,0.1,0.8,0.1,1.3c0,0.4,0,0.7,0,1.1C39.1,21.3,36.4,15.6,33.1,10.3z M26,8.3c0.9,1.5,1.8,3,2.7,4.6
		c-0.4-0.1-0.8-0.2-1.3-0.3c-0.9-1.4-1.7-2.8-2.5-4.3C25.3,8.3,25.7,8.3,26,8.3z M12.1,35.7c-2-2.1-3.5-5.4-4-8.5
		c1.7,3.3,3.5,6.6,5.4,9.9C13,36.7,12.5,36.2,12.1,35.7z M36.8,37.1c-0.7-1.2-1.4-2.3-2.2-3.4c0,0-0.1-0.1-0.1-0.1
		c0.2-0.2,0.4-0.4,0.6-0.7c0.7,1.2,1.5,2.4,2.3,3.6C37.2,36.7,37,36.9,36.8,37.1z M38.2,35.8c-0.8-1.2-1.6-2.4-2.3-3.7
		c0.2-0.3,0.5-0.7,0.6-1c0.9,1.3,1.7,2.6,2.4,3.9C38.7,35.2,38.4,35.5,38.2,35.8z"/>
	<path class="st0" d="M48.4,19.6c-1.2-4.5-4-8.5-7.4-11.6c-3.5-3.3-7.8-6.1-12.7-6.6C23,0.8,16.7,1.4,12.3,4.4
		C3.8,10.4-0.6,19.6,1.6,30c2.4,11.1,12.4,18.9,23.6,18.8c9.4,0.1,17.9-4.8,21.6-13.6C48.8,30.3,49.7,24.8,48.4,19.6z M46.7,31.3
		c-1.4,5-4,9.5-8.4,12.4c-3.9,2.6-8.5,3.8-13.1,3.7c-9.3,0-17.8-5.5-21.2-14.3c-1.7-4.5-2.2-10-0.8-14.7c1.2-4.3,3.8-7.7,7.1-10.6
		C12,6.3,13.9,4.8,16.1,4c2.5-1,5.4-1.1,8.1-1.3c5.2-0.3,9.5,1.2,13.6,4.4C45.4,13,49.4,21.6,46.7,31.3z"/>
	<path class="st0" d="M19.8,17.2c0.5-0.4,0-1.3-0.5-0.9c-0.8,0.6-1.6,1.3-2.2,2.1c-0.4,0.5,0.3,1.3,0.7,0.7
		C18.4,18.5,19.1,17.8,19.8,17.2z"/>
	<path class="st0" d="M19.1,18.6c-0.5,0.5,0.3,1.2,0.7,0.7c0.4-0.5,0.9-0.9,1.5-1.2c0.6-0.3,0.1-1.2-0.5-0.9
		C20.1,17.6,19.6,18,19.1,18.6z"/>
</g>
</svg>
