<?xml version="1.0" encoding="utf-8"?>
<!-- Generator: Adobe Illustrator 19.1.0, SVG Export Plug-In . SVG Version: 6.00 Build 0)  -->
<svg version="1.0" id="Слой_1" xmlns="http://www.w3.org/2000/svg" xmlns:xlink="http://www.w3.org/1999/xlink" x="0px" y="0px"
	 viewBox="0 0 50 50" style="enable-background:new 0 0 50 50;" xml:space="preserve">
<style type="text/css">
	.st0{fill:#4D4D4D;}
</style>
<g>
	<path class="st0" d="M24.4,16.5c-4.4,0.4-7.9,4-7.7,8.5c0.2,4.6,4.1,8.1,8.7,8.2C36.7,33.2,35.5,15.1,24.4,16.5z M25.3,31.7
		c-3.8,0-7-3-7.3-6.8c-0.2-3.7,2.7-6.8,6.3-7.1C33.7,16.7,34.9,31.7,25.3,31.7z"/>
	<path class="st0" d="M49,25.2c0-1.2,0.4-3.5-0.7-4.4c-1-0.8-3.4-0.7-4.9-0.7c-0.4-1.2-0.6-2.4-1.1-3.5c-0.2-0.4-0.9-1.3-0.8-1.8
		c0.2-0.6,2.2-1.5,2.7-2.2c0.4-0.5,0.6-1.1,0.4-1.7c-0.3-1.1-1.6-2-2.4-2.7c-0.8-0.7-1.8-2.1-2.8-2.5c-1.6-0.7-3.2,1.6-4.3,2.8
		c-1.3-0.8-2.6-1.2-4-1.8c-1-0.5-1.2-0.5-1.4-1.5c-0.2-0.8,0.1-1.7-0.1-2.6c-0.6-2.5-3.1-1.7-5.1-1.6c-2,0.2-4.2-0.2-4.3,2.3
		c0,0.8,0.4,1.8,0.1,2.6c-0.2,0.7-0.4,0.5-1.3,0.8c-1.4,0.5-2.6,1.1-3.9,1.9c-1-1.2-2.1-2.8-3.7-2.7C9.8,6.1,8.2,8.3,7.1,9.4
		c-2.2,2.3,0.1,3.8,1.8,5.6c-1.2,1.6-2,3.4-2.5,5.3c-1.5-0.3-3.7-0.5-4.7,0.6C0.5,22,1,24.8,1.1,26.1c0.1,1.2,0,2.7,1.2,3.3
		c1.1,0.6,2.9,0.3,4.3,0.1c0.3,1.2,0.7,2.4,1.2,3.6c0.1,0.3,0.7,1,0.6,1.3c0,0.1-0.3,0.3-0.4,0.5c-0.6,1.1-2.9,2.2-2.4,3.8
		c0.5,1.6,3.8,4.4,5.3,5c1.7,0.7,3.2-1.2,4.4-2.4c1.6,1.2,3.4,1.9,5.4,2.2c-0.1,1.5-0.7,3.7,0.3,4.8c0.7,0.8,2.4,0.6,3.3,0.7
		c1.2,0,2.8,0.2,3.9-0.3c0.8-0.3,1.3-0.8,1.4-1.7c0.2-0.9-0.6-2.5-0.2-3.3c0.3-0.6,2.4-1,3.1-1.4c1.2-0.7,2.3-1.9,3.6-0.7
		c1.4,1.2,2,3.3,3.9,2.2c1.4-0.9,3-2.6,3.9-4c1-1.6,0.3-2.2-1-3.4c-1.3-1.2-1.8-1.1-1-2.8c0.6-1.4,1.1-2.9,1.5-4.3
		c1.5,0.1,3.6,0.4,4.8-0.3C49.4,28.3,49,26.3,49,25.2z M46.7,28c-1,0.3-2.7,0-3.7,0c-0.2,0-0.4,0.1-0.5,0.2
		c-0.1,0.1-0.1,0.2-0.2,0.3c-0.6,2-1.5,3.8-2.2,5.7c-0.3,0.8-0.2,1.3,0.3,2c0.6,0.8,2.1,1.3,2.4,2.2c0.4,0.9-1.5,2.6-2.1,3.2
		c-0.3,0.3-0.9,1-1.3,1.1c-0.8,0.2-1.1-0.4-1.7-1.1c-0.6-0.7-1.2-1.8-2.3-2c-0.7-0.1-1.5,0.5-2.1,0.8c-1.6,0.9-2.9,1.6-4.7,1.9
		c-0.2,0-0.5,0.3-0.5,0.5c-0.1,0.9,0.1,1.7,0.1,2.6c0,2.4-2,2.3-3.9,2.3c-1.7,0-2.3,0-2.3-1.8c0-0.9,0.2-1.9,0.1-2.9
		c0-0.4-0.3-0.7-0.7-0.7c-2.1-0.2-4-1-5.7-2.3c-0.1-0.1-0.2-0.1-0.3-0.1c-0.2-0.1-0.5-0.1-0.7,0.1c-0.6,0.6-1.7,2.1-2.5,2.3
		c-1.3,0.4-2.6-1.2-3.4-2c-0.7-0.7-1.9-1.5-1.6-2.5c0.2-0.7,1.4-1.5,1.9-2c0.6-0.6,0.8-0.8,0.6-1.6c-0.2-0.9-0.9-1.8-1.2-2.7
		c-0.3-0.9-0.6-1.8-0.8-2.8c-0.1-0.3-0.4-0.5-0.7-0.5c-0.7,0.1-1.5,0.2-2.2,0.2c-1.3,0-2,0.2-2.3-1.3c-0.2-1.1-0.3-2.4-0.2-3.4
		c0.1-0.6,0.1-1.6,0.7-2c0.7-0.4,2.8,0,3.5,0.1c0.4,0.1,0.8-0.1,0.9-0.5c0.5-2.3,1.4-4.2,2.8-6c0.2-0.3,0.1-0.6-0.1-0.8
		c-1-1.1-3.3-2.4-2.2-4c0.4-0.6,1.7-1.9,2.3-2.2c2.1-1,2.9,0.5,4,1.8c0.2,0.3,0.5,0.6,0.9,0.3c1.5-1,3.1-1.6,4.8-2.3
		c0.4-0.1,0.9-0.3,1.2-0.6c0.4-0.4,0.4-1.2,0.5-1.7c0-0.6-0.3-1.3-0.1-1.8c0.3-1.2,1.5-1.1,2.5-1.2c0.7-0.1,1.4-0.1,2.1-0.2
		c0.8-0.1,1.3,0.1,1.7,0.3c0.6,0.3,0.3,1,0.4,1.8c0.1,0.8-0.3,1.7,0.1,2.5c0.3,0.6,0.8,0.7,1.4,0.9c1.7,0.6,3.3,1.1,4.8,2.1
		c0.1,0,0.1,0.1,0.2,0.1c0.2,0.1,0.5,0.1,0.8-0.1c0.7-0.7,1.6-2,2.5-2.5C39.4,6.9,40,8.1,40.9,9c0.9,0.9,2.7,1.9,1.7,3.3
		c-0.5,0.7-1.5,1-2.1,1.6c-0.6,0.6-0.6,1-0.3,1.7c0.3,0.7,0.7,1.4,1,2.1c0.4,1.1,0.6,2.2,1,3.3c0.1,0.3,0.3,0.5,0.7,0.5
		c1.1,0.1,2.4,0,3.4,0.3c1.6,0.5,1.2,2,1.3,3.4C47.6,26.4,48,27.6,46.7,28z"/>
	<path class="st0" d="M21.8,13c0.8-0.3,1.7-0.4,2.6-0.4c0.9,0,0.9-1.4,0-1.4c-1,0-2,0.1-2.9,0.4C20.6,12,21,13.3,21.8,13z"/>
	<path class="st0" d="M29.5,13.4c0.7,0.2,1.4,0.5,2,1c0.7,0.6,1.7-0.4,1-1c-0.8-0.6-1.6-1.1-2.6-1.4C29,11.9,28.7,13.2,29.5,13.4z"
		/>
	<path class="st0" d="M37.7,19.8c-0.3-0.9-0.7-1.7-1.3-2.4c-0.2-0.3-0.6-0.5-0.9-0.2c-0.3,0.2-0.5,0.6-0.2,0.9
		c0.5,0.6,0.9,1.3,1.1,2.1C36.7,21,38,20.7,37.7,19.8z"/>
	<path class="st0" d="M37.2,25.5c-0.1,0.8-0.2,1.6-0.4,2.4c-0.2,0.9,1.1,1.2,1.3,0.4c0.2-0.9,0.4-1.8,0.5-2.8
		C38.7,24.6,37.3,24.6,37.2,25.5z"/>
	<path class="st0" d="M35.3,32.3c-0.3-0.2-0.8-0.1-0.9,0.2c-0.3,0.7-0.8,1.3-1.5,1.6c-0.8,0.4-0.1,1.6,0.7,1.2
		c0.9-0.5,1.6-1.2,2-2.1C35.7,32.9,35.7,32.5,35.3,32.3z"/>
	<path class="st0" d="M28.1,36.5c-0.8,0.1-1.6,0.2-2.4,0.3c-0.9,0.1-0.9,1.5,0,1.4c0.9-0.1,1.8-0.2,2.8-0.4
		C29.4,37.7,29,36.4,28.1,36.5z"/>
	<path class="st0" d="M20.7,36.1c-0.8-0.2-1.6-0.6-2.3-1.1c-0.3-0.2-0.8,0-0.9,0.2c-0.2,0.3-0.1,0.7,0.2,0.9c0.8,0.6,1.7,1,2.6,1.2
		C21.2,37.6,21.5,36.3,20.7,36.1z"/>
	<path class="st0" d="M13.7,29.2c-0.2-0.9-1.6-0.5-1.3,0.4c0.3,1,0.7,1.9,1.4,2.7c0.2,0.3,0.7,0.2,1,0c0.3-0.3,0.2-0.7,0-1
		C14.2,30.6,13.9,29.9,13.7,29.2z"/>
	<path class="st0" d="M13.1,24.1c0-0.8,0-1.7,0.2-2.5c0.1-0.9-1.2-1.2-1.3-0.4c-0.2,1-0.2,1.9-0.2,2.9C11.7,25,13.1,25,13.1,24.1z"
		/>
	<path class="st0" d="M16.7,14.3c-0.8,0.5-1.6,1.2-2.2,1.9c-0.2,0.3-0.3,0.7,0,1c0.2,0.2,0.7,0.3,1,0c0.5-0.7,1.2-1.3,1.9-1.7
		C18.1,15,17.4,13.8,16.7,14.3z"/>
</g>
</svg>
